{"title":"The Twilight Saga _Eclipse (2010)_DvD RiP_425 MB_With Hindi Audi","uid":9290348,"size":456382995,"categoryP":"video","categoryS":"movies","magnet":"?xt=urn:btih:a8c9c306c4434c6bb0ebeb074e9edca5d17da3f2&amp;dn=The+Twilight+Saga+_Eclipse+%282010%29_DvD+RiP_425+MB_With+Hindi+Audi&amp;tr=udp%3A%2F%2Ftracker.openbittorrent.com%3A80&amp;tr=udp%3A%2F%2Fopen.demonii.com%3A1337&amp;tr=udp%3A%2F%2Ftracker.coppersurfer.tk%3A6969&amp;tr=udp%3A%2F%2Fexodus.desync.com%3A6969","seeders":1,"leechers":0,"uploader":"shilpa143","files":20,"time":1386078711,"description":"[img]http://s28.postimg.org/gdh4ztxr1/Intruders_poster.jpg[/img]\n\n\nImdb Link :- [url]http://www.imdb.com/title/tt1325004/[/url]\n\n\n[img]http://i.cubeupload.com/8K6BPX.png[/img]\n\n[img]http://s28.postimg.org/e1tcqpafx/The_Twilight_Saga_Eclipse_2010_IMDb_2013_12_02_19_32_29.png[/img]\n\n[img]http://i.cubeupload.com/TaXMhY.png[/img]\n\n[b]General\nComplete name                            : Eclipse.mp4\nFormat                                   : MPEG-4\nFormat profile                           : Base Media / Version 2\nCodec ID                                 : mp42\nFile size                                : 430 MiB\nDuration                                 : 1h 50mn\nOverall bit rate mode                    : Variable\nOverall bit rate                         : 544 Kbps\n\n\nVideo\nID                                       : 1\nFormat                                   : AVC\nFormat/Info                              : Advanced Video Codec\nFormat profile                           : &lt;a class=&quot;__cf_email__&quot; href=&quot;/cdn-cgi/l/email-protection&quot; data-cfemail=&quot;9cd4f5fbf4dcd0a8b2ac&quot;&gt;[email&amp;#160;protected]&lt;/a&gt;&lt;script cf-hash='f9e31' type=&quot;text/javascript&quot;&gt;\n/* &lt;![CDATA[ */!function(){try{var t=&quot;currentScript&quot;in document?document.currentScript:function(){for(var t=document.getElementsByTagName(&quot;script&quot;),e=t.length;e--;)if(t[e].getAttribute(&quot;cf-hash&quot;))return t[e]}();if(t&amp;&amp;t.previousSibling){var e,r,n,i,c=t.previousSibling,a=c.getAttribute(&quot;data-cfemail&quot;);if(a){for(e=&quot;&quot;,r=parseInt(a.substr(0,2),16),n=2;a.length-n;n+=2)i=parseInt(a.substr(n,2),16)^r,e+=String.fromCharCode(i);e=document.createTextNode(e),c.parentNode.replaceChild(e,c)}}}catch(u){}}();/* ]]&gt; */&lt;/script&gt;\nFormat settings, CABAC                   : Yes\nFormat settings, ReFrames                : 5 frames\nCodec ID                                 : avc1\nCodec ID/Info                            : Advanced Video Coding\nDuration                                 : 1h 50mn\nBit rate mode                            : Variable\nBit rate                                 : 411 Kbps\nWidth                                    : 696 pixels\nHeight                                   : 288 pixels\nDisplay aspect ratio                     : 2.40:1\nFrame rate mode                          : Variable\nFrame rate                               : 23.976 fps\nMinimum frame rate                       : 13.977 fps\nMaximum frame rate                       : 25.000 fps\nColor space                              : YUV\nChroma subsampling                       : 4:2:0\nBit depth                                : 8 bits\nScan type                                : Progressive\nBits/(Pixel*Frame)                       : 0.086\nStream size                              : 325 MiB (76%)\nWriting library                          : x264 core 130 r2273 b3065e6\n\nAudio\nID                                       : 2\nFormat                                   : AAC\nFormat/Info                              : Advanced Audio Codec\nFormat profile                           : LC\nCodec ID                                 : 40\nDuration                                 : 1h 50mn\nBit rate mode                            : Variable\nBit rate                                 : 128 Kbps\nMaximum bit rate                         : 163 Kbps\nChannel count                            : 2 channels\nChannel positions                        : Front: L R\nSampling rate                            : 48.0 KHz\nCompression mode                         : Lossy\nDelay relative to video                  : 140ms\nStream size                              : 101 MiB (24%)\n\nText\nID                                       : 3\nFormat                                   : Timed Text\nMuxing mode                              : sbtl\nCodec ID                                 : tx3g\nDuration                                 : 1h 30mn\nBit rate mode                            : Variable\nBit rate                                 : 1 bps\nDelay relative to video                  : 140ms\nStream size                              : 447 Bytes (0%)\nLanguage                                 : English\nEncoded date                             : UTC 2013-12-01 19:52:24\nTagged date                              : UTC 2013-12-02 00:35:29\n\n[/b]\n\n\n[img]http://i.cubeupload.com/eh1EHE.png[/img]\n\n\n[img]http://s28.postimg.org/9xwzby3vh/Eclipse.jpg[/img]\n\n\n\n\n\n[img]http://s22.postimg.org/bhay4358x/thanks.jpg[/img]","torrent":{"xt":"urn:btih:a8c9c306c4434c6bb0ebeb074e9edca5d17da3f2","amp;dn":"The+Twilight+Saga+_Eclipse+%282010%29_DvD+RiP_425+MB_With+Hindi+Audi","amp;tr":["udp%3A%2F%2Ftracker.openbittorrent.com%3A80","udp%3A%2F%2Fopen.demonii.com%3A1337","udp%3A%2F%2Ftracker.coppersurfer.tk%3A6969","udp%3A%2F%2Fexodus.desync.com%3A6969"],"infoHash":"a8c9c306c4434c6bb0ebeb074e9edca5d17da3f2","infoHashBuffer":{"type":"Buffer","data":[168,201,195,6,196,67,76,107,176,235,235,7,78,158,220,165,209,125,163,242]},"announce":[],"urlList":[]}}